# Blender v2.93.5 OBJ File: ''
# www.blender.org
mtllib plan2.mtl
o Cube.001
v -5.634461 -0.063973 -5.162506
v 5.634461 -0.063973 -5.162506
v 5.634461 -0.063975 5.162506
v 5.634461 0.063973 5.162506
v -5.634461 0.063973 5.162506
v -5.634461 -0.063975 5.162506
v -5.634461 0.063975 -5.162506
v 5.634461 0.063975 -5.162506
v 5.754549 -0.063975 5.162506
v 5.754549 0.063973 5.162506
v 5.754549 -0.063973 -5.162506
v 5.754549 0.063975 -5.162506
v 5.634461 0.596139 5.162506
v 5.634461 0.596140 -5.162506
v 5.754549 0.596139 5.162506
v 5.754549 0.596140 -5.162506
v -5.738271 -0.063975 5.162506
v -5.738271 0.063975 -5.162506
v -5.738271 -0.063973 -5.162506
v -5.634461 0.404099 5.168306
v -5.634461 0.532049 -5.156706
v -5.738271 0.404099 5.168306
v -5.738271 0.532049 -5.156706
vt 0.875000 0.500000
vt 0.625000 0.500000
vt 0.625000 0.750000
vt 0.625000 0.000000
vt 0.375000 0.000000
vt 0.375000 0.250000
vt 0.375000 0.750000
vt 0.625000 0.750000
vt 0.375000 0.750000
vt 0.375000 1.000000
vt 0.625000 1.000000
vt 0.625000 0.250000
vt 0.375000 0.500000
vt 0.875000 0.750000
vt 0.625000 0.250000
vt 0.375000 0.250000
vt 0.125000 0.500000
vt 0.125000 0.750000
vt 0.625000 0.500000
vt 0.375000 0.500000
vt 0.375000 0.500000
vt 0.375000 0.750000
vt 0.375000 0.500000
vt 0.375000 0.750000
vt 0.625000 0.000000
vt 0.875000 0.500000
vt 0.375000 0.250000
vt 0.375000 0.250000
vt 0.625000 0.000000
vt 0.625000 0.000000
vt 0.875000 0.750000
vt 0.875000 0.750000
vt 0.875000 0.750000
vn 0.0000 -1.0000 -0.0000
vn 0.0055 -0.7115 0.7027
vn -1.0000 0.0000 0.0000
vn 0.4444 0.0055 -0.8958
vn -0.4472 0.0000 0.8944
vn 0.0000 -0.7071 0.7071
vn 0.4472 0.0000 0.8944
vn 0.0000 0.0000 1.0000
vn 0.0000 0.0000 -1.0000
vn 0.0000 -0.7071 -0.7071
vn -0.7057 0.0044 -0.7085
vn 0.0000 1.0000 0.0000
vn 1.0000 0.0000 0.0000
vn -0.5774 0.5774 -0.5774
vn -0.4472 0.0000 -0.8944
vn 0.4472 0.0000 -0.8944
vn -0.5774 0.5774 0.5774
vn 0.5774 0.5774 -0.5773
vn 0.5774 0.5774 0.5774
vn -0.5780 -0.5806 0.5734
vn -0.5774 0.5845 -0.5702
vn 0.5773 0.5845 -0.5702
vn -0.5773 0.5702 0.5845
vn 0.5774 0.5702 0.5845
usemtl Material.001
s 1
f 1/1/1 2/2/1 3/3/1
f 6/4/2 5/5/3 7/6/4
f 4/7/5 3/3/6 9/8/6 10/9/7
f 5/10/8 6/11/8 3/3/8 4/7/8
f 1/12/9 7/6/9 8/13/9
f 1/1/1 3/3/1 6/14/1
f 7/6/4 1/12/10 19/15/10 18/16/11
f 1/12/9 8/13/9 2/2/9
f 4/7/12 7/17/12 5/18/12
f 10/9/13 9/8/13 11/19/13 12/20/13
f 4/7/5 14/21/14 8/13/15
f 2/2/10 8/13/15 12/20/16 11/19/10
f 3/3/6 2/2/10 11/19/10 9/8/6
f 13/22/17 16/23/18 14/21/14
f 10/9/7 13/22/17 4/7/5
f 12/20/16 15/24/19 10/9/7
f 8/13/15 16/23/18 12/20/16
f 17/25/20 18/16/11 19/15/3
f 6/14/2 19/26/10 1/1/10
f 7/6/4 18/16/11 23/27/21 21/28/22
f 21/28/22 22/29/23 20/30/24
f 17/25/20 23/27/21 18/16/11
f 17/31/20 6/14/2 20/32/24 22/33/23
f 7/6/4 20/30/24 6/4/2
f 4/7/12 8/13/12 7/17/12
f 4/7/5 13/22/17 14/21/14
f 13/22/17 15/24/19 16/23/18
f 10/9/7 15/24/19 13/22/17
f 12/20/16 16/23/18 15/24/19
f 8/13/15 14/21/14 16/23/18
f 6/14/2 17/31/20 19/26/10
f 21/28/22 23/27/21 22/29/23
f 17/25/20 22/29/23 23/27/21
f 7/6/4 21/28/22 20/30/24
